<svg width="56" height="56" viewBox="0 0 56 56" fill="none" xmlns="http://www.w3.org/2000/svg">
<path d="M25.423 32.0914C25.423 32.5929 25.8295 32.9995 26.331 32.9995C26.8325 32.9995 27.2391 32.5929 27.2391 32.0914C27.2391 29.0875 24.4604 26.6048 20.8826 26.2398V25.2809C20.8826 24.7794 20.476 24.3728 19.9745 24.3728C19.473 24.3728 19.0665 24.7794 19.0665 25.2809V26.2398C15.4887 26.603 12.71 29.0875 12.71 32.0914C12.71 35.0953 15.4887 37.578 19.0665 37.943V46.1048C16.4939 45.7797 14.5261 44.1006 14.5261 42.0802C14.5261 41.5787 14.1195 41.1721 13.618 41.1721C13.1165 41.1721 12.71 41.5787 12.71 42.0802C12.71 45.0841 15.4887 47.5668 19.0665 47.9318V48.8907C19.0665 49.3922 19.473 49.7988 19.9745 49.7988C20.476 49.7988 20.8826 49.3922 20.8826 48.8907V47.9318C24.4604 47.5686 27.2391 45.0841 27.2391 42.0802C27.2391 39.0763 24.4604 36.5936 20.8826 36.2286V28.0668C23.4552 28.3919 25.423 30.0709 25.423 32.0914ZM14.5261 32.0914C14.5261 30.0709 16.4939 28.3919 19.0665 28.0668V36.116C16.4939 35.7909 14.5261 34.1119 14.5261 32.0914ZM25.423 42.0802C25.423 44.1006 23.4552 45.7797 20.8826 46.1048V38.0556C23.4552 38.3807 25.423 40.0597 25.423 42.0802Z" fill="#1D70B8"/>
<path d="M4.17439 28.1622C3.71952 27.9511 3.17963 28.1487 2.96848 28.6036C1.60176 31.5449 0.897466 34.7505 0.905339 37.9939C0.905339 49.442 7.32086 55.2473 19.9748 55.2473C22.5317 55.2875 25.0829 54.9935 27.5636 54.3728C28.0483 54.2439 28.3367 53.7465 28.2079 53.2618C28.079 52.7771 27.5815 52.4886 27.0968 52.6175C24.7675 53.1928 22.3739 53.4662 19.9748 53.4311C8.36514 53.4311 2.72148 48.3813 2.72148 37.9939C2.70514 35.0134 3.35251 32.0665 4.61663 29.3672C4.827 28.9124 4.62908 28.373 4.17439 28.1622Z" fill="#1D70B8"/>
<path d="M52.6654 23.4647H32.6878C31.1833 23.4647 29.9636 24.6844 29.9636 26.1889V52.523C29.9636 54.0275 31.1833 55.2472 32.6878 55.2472H52.6654C54.1699 55.2472 55.3896 54.0275 55.3896 52.523V26.1889C55.3896 24.6844 54.1699 23.4647 52.6654 23.4647ZM53.5735 52.523C53.5735 53.0245 53.1669 53.4311 52.6654 53.4311H32.6878C32.1863 53.4311 31.7798 53.0245 31.7798 52.523V26.1889C31.7798 25.6874 32.1863 25.2809 32.6878 25.2809H52.6654C53.1669 25.2809 53.5735 25.6874 53.5735 26.1889V52.523Z" fill="#1D70B8"/>
<path d="M36.3202 35.2696H49.0332C50.0363 35.2696 50.8494 34.4565 50.8494 33.4534V29.8211C50.8494 28.8181 50.0363 28.005 49.0332 28.005H36.3202C35.3172 28.005 34.5041 28.8181 34.5041 29.8211V33.4534C34.5041 34.4565 35.3172 35.2696 36.3202 35.2696ZM36.3202 29.8211H49.0332V33.4534H36.3202V29.8211Z" fill="#1D70B8"/>
<path d="M38.1364 37.9939H35.4122C34.9106 37.9939 34.5041 38.4005 34.5041 38.902C34.5041 39.4035 34.9106 39.81 35.4122 39.81H38.1364C38.6379 39.81 39.0444 39.4035 39.0444 38.902C39.0444 38.4005 38.6379 37.9939 38.1364 37.9939Z" fill="#1D70B8"/>
<path d="M38.1364 41.6262H35.4122C34.9106 41.6262 34.5041 42.0328 34.5041 42.5343C34.5041 43.0358 34.9106 43.4424 35.4122 43.4424H38.1364C38.6379 43.4424 39.0444 43.0358 39.0444 42.5343C39.0444 42.0328 38.6379 41.6262 38.1364 41.6262Z" fill="#1D70B8"/>
<path d="M38.1364 45.2585H35.4122C34.9106 45.2585 34.5041 45.6651 34.5041 46.1666C34.5041 46.6681 34.9106 47.0747 35.4122 47.0747H38.1364C38.6379 47.0747 39.0444 46.6681 39.0444 46.1666C39.0444 45.6651 38.6379 45.2585 38.1364 45.2585Z" fill="#1D70B8"/>
<path d="M38.1364 48.8907H35.4122C34.9106 48.8907 34.5041 49.2973 34.5041 49.7988C34.5041 50.3003 34.9106 50.7069 35.4122 50.7069H38.1364C38.6379 50.7069 39.0444 50.3003 39.0444 49.7988C39.0444 49.2973 38.6379 48.8907 38.1364 48.8907Z" fill="#1D70B8"/>
<path d="M44.4927 37.9939H41.7685C41.267 37.9939 40.8604 38.4005 40.8604 38.902C40.8604 39.4035 41.267 39.81 41.7685 39.81H44.4927C44.9942 39.81 45.4008 39.4035 45.4008 38.902C45.4008 38.4005 44.9942 37.9939 44.4927 37.9939Z" fill="#1D70B8"/>
<path d="M44.4927 41.6262H41.7685C41.267 41.6262 40.8604 42.0328 40.8604 42.5343C40.8604 43.0358 41.267 43.4424 41.7685 43.4424H44.4927C44.9942 43.4424 45.4008 43.0358 45.4008 42.5343C45.4008 42.0328 44.9942 41.6262 44.4927 41.6262Z" fill="#1D70B8"/>
<path d="M44.4927 45.2585H41.7685C41.267 45.2585 40.8604 45.6651 40.8604 46.1666C40.8604 46.6681 41.267 47.0747 41.7685 47.0747H44.4927C44.9942 47.0747 45.4008 46.6681 45.4008 46.1666C45.4008 45.6651 44.9942 45.2585 44.4927 45.2585Z" fill="#1D70B8"/>
<path d="M44.4927 48.8907H41.7685C41.267 48.8907 40.8604 49.2973 40.8604 49.7988C40.8604 50.3003 41.267 50.7069 41.7685 50.7069H44.4927C44.9942 50.7069 45.4008 50.3003 45.4008 49.7988C45.4008 49.2973 44.9942 48.8907 44.4927 48.8907Z" fill="#1D70B8"/>
<path d="M50.8485 37.9939H48.1243C47.6227 37.9939 47.2162 38.4005 47.2162 38.902C47.2162 39.4035 47.6227 39.81 48.1243 39.81H50.8485C51.35 39.81 51.7565 39.4035 51.7565 38.902C51.7565 38.4005 51.35 37.9939 50.8485 37.9939Z" fill="#1D70B8"/>
<path d="M50.8485 41.6262H48.1243C47.6227 41.6262 47.2162 42.0328 47.2162 42.5343C47.2162 43.0358 47.6227 43.4424 48.1243 43.4424H50.8485C51.35 43.4424 51.7565 43.0358 51.7565 42.5343C51.7565 42.0328 51.35 41.6262 50.8485 41.6262Z" fill="#1D70B8"/>
<path d="M50.8485 45.2585H48.1243C47.6227 45.2585 47.2162 45.6651 47.2162 46.1666C47.2162 46.6681 47.6227 47.0747 48.1243 47.0747H50.8485C51.35 47.0747 51.7565 46.6681 51.7565 46.1666C51.7565 45.6651 51.35 45.2585 50.8485 45.2585Z" fill="#1D70B8"/>
<path d="M50.8485 48.8907H48.1243C47.6227 48.8907 47.2162 49.2973 47.2162 49.7988C47.2162 50.3003 47.6227 50.7069 48.1243 50.7069H50.8485C51.35 50.7069 51.7565 50.3003 51.7565 49.7988C51.7565 49.2973 51.35 48.8907 50.8485 48.8907Z" fill="#1D70B8"/>
<path d="M6.64891 1.90991C4.25796 4.10018 8.4587 10.8562 10.9341 14.3841H10.4401C9.59657 14.381 8.78677 14.7151 8.19082 15.3121C7.59689 15.9106 7.26307 16.7192 7.26186 17.5623C7.26576 18.6939 7.87287 19.7375 8.85462 20.3002C7.79465 21.4213 6.79613 22.599 5.86343 23.828C5.56252 24.2292 5.64383 24.7984 6.04504 25.0993C6.44626 25.4002 7.01544 25.3189 7.31634 24.9177C8.43799 23.4503 9.65117 22.0551 10.9486 20.7406H29.5096C30.6451 20.7406 31.6943 20.1348 32.262 19.1515C32.8298 18.1681 32.8298 16.9566 32.262 15.9732C31.6943 14.9899 30.6451 14.3841 29.5096 14.3841H29.0156C31.4901 10.8562 35.6908 4.10109 33.3017 1.90991C32.2029 0.903768 30.9226 1.63749 29.7938 2.2795C28.7674 2.98243 27.5723 3.3993 26.3314 3.48723C25.3462 3.48515 24.4071 3.07011 23.7424 2.34306C22.7487 1.33278 21.391 0.763794 19.9739 0.763794C18.5569 0.763794 17.1991 1.33278 16.2055 2.34306C15.5397 3.07128 14.5987 3.48642 13.612 3.48723C12.3717 3.40021 11.1772 2.98324 10.1522 2.2795C9.02443 1.63567 7.74495 0.904677 6.64891 1.90991ZM30.4749 16.598C30.8656 16.9877 30.9825 17.5746 30.7711 18.0843C30.5596 18.5941 30.0614 18.9258 29.5096 18.9244H10.4401C9.68784 18.9244 9.078 18.3146 9.078 17.5623C9.078 16.8101 9.68784 16.2002 10.4401 16.2002H29.5096C29.8712 16.2003 30.2182 16.3433 30.4749 16.598ZM13.612 5.30337C15.0296 5.30317 16.3878 4.73355 17.3814 3.72242C18.0446 2.99387 18.9842 2.5786 19.9694 2.5786C20.9546 2.5786 21.8942 2.99387 22.5574 3.72242C23.5524 4.73432 24.9122 5.30398 26.3314 5.30337C27.8905 5.22146 29.3989 4.72149 30.6983 3.85591C31.1128 3.56328 31.5819 3.35671 32.0776 3.24841C33.0093 4.10199 30.5466 9.24985 26.7818 14.3841H24.5152V9.84373C24.5152 9.34221 24.1087 8.93566 23.6071 8.93566C23.1056 8.93566 22.6991 9.34221 22.6991 9.84373V14.3841H17.2506V9.84373C17.2506 9.34221 16.8441 8.93566 16.3426 8.93566C15.8411 8.93566 15.4345 9.34221 15.4345 9.84373V14.3841H13.1716C9.40672 9.24985 6.94403 4.10199 7.88843 3.23479C8.37391 3.36446 8.83429 3.57439 9.25053 3.85591C10.548 4.72137 12.0546 5.22138 13.612 5.30337Z" fill="#1D70B8"/>
</svg>
