<svg width="57" height="56" viewBox="0 0 57 56" fill="none" xmlns="http://www.w3.org/2000/svg">
<path d="M8.94905 53.079C9.43792 53.079 9.9158 52.934 10.3223 52.6624C10.7288 52.3908 11.0456 52.0048 11.2327 51.5532C11.4197 51.1015 11.4687 50.6045 11.3733 50.125C11.2779 49.6456 11.0425 49.2051 10.6968 48.8595C10.3512 48.5138 9.91074 48.2784 9.43126 48.183C8.95179 48.0876 8.4548 48.1366 8.00315 48.3237C7.5515 48.5107 7.16546 48.8275 6.89386 49.234C6.62226 49.6405 6.47729 50.1184 6.47729 50.6073C6.47805 51.2626 6.73871 51.8908 7.20209 52.3542C7.66547 52.8176 8.29373 53.0783 8.94905 53.079ZM8.94905 49.9568C9.0777 49.9568 9.20346 49.9949 9.31043 50.0664C9.41739 50.1379 9.50077 50.2395 9.55 50.3583C9.59923 50.4772 9.61211 50.608 9.58701 50.7342C9.56191 50.8603 9.49996 50.9762 9.409 51.0672C9.31803 51.1582 9.20212 51.2201 9.07595 51.2452C8.94977 51.2703 8.81898 51.2574 8.70013 51.2082C8.58127 51.159 8.47968 51.0756 8.40821 50.9686C8.33674 50.8617 8.29859 50.7359 8.29859 50.6073C8.29879 50.4348 8.36739 50.2695 8.48933 50.1475C8.61127 50.0256 8.7766 49.957 8.94905 49.9568Z" fill="#1D70B8"/>
<path d="M15.0888 14.5429C14.4 14.5495 13.7418 14.8285 13.258 15.3188C12.7742 15.8091 12.5041 16.4709 12.5066 17.1597C12.5091 17.8485 12.7841 18.5083 13.2714 18.995C13.7588 19.4818 14.4189 19.7559 15.1077 19.7576H15.1273C15.4711 19.7573 15.8115 19.689 16.1289 19.5566C16.4462 19.4242 16.7343 19.2303 16.9764 18.9862C17.2185 18.742 17.41 18.4524 17.5397 18.1339C17.6695 17.8155 17.7349 17.4745 17.7324 17.1306C17.7298 16.7868 17.6592 16.4468 17.5247 16.1304C17.3902 15.8139 17.1945 15.5271 16.9487 15.2866C16.703 15.0461 16.4121 14.8566 16.0928 14.729C15.7735 14.6013 15.4321 14.5381 15.0882 14.543L15.0888 14.5429ZM15.8942 17.1447C15.8949 17.248 15.8754 17.3503 15.8366 17.446C15.7978 17.5417 15.7405 17.6288 15.668 17.7023C15.5955 17.7759 15.5092 17.8344 15.4141 17.8746C15.319 17.9147 15.2169 17.9358 15.1136 17.9364H15.1077C14.9009 17.9346 14.7032 17.8514 14.5573 17.7048C14.4114 17.5582 14.3292 17.36 14.3284 17.1532C14.3277 16.9464 14.4085 16.7476 14.5533 16.5999C14.6981 16.4522 14.8952 16.3676 15.102 16.3643H15.108C15.3155 16.3643 15.5146 16.4463 15.6618 16.5926C15.8091 16.7388 15.8925 16.9373 15.8939 17.1448L15.8942 17.1447Z" fill="#1D70B8"/>
<path d="M41.6789 14.3468H41.6594C40.9707 14.3535 40.3125 14.6323 39.8287 15.1226C39.3449 15.6128 39.0747 16.2746 39.0772 16.9634C39.0796 17.6521 39.3545 18.312 39.8417 18.7988C40.329 19.2856 40.9891 19.5598 41.6779 19.5615H41.6975C42.3889 19.5558 43.0498 19.2761 43.5351 18.7837C44.0204 18.2913 44.2906 17.6265 44.2864 16.9351C44.2805 16.2471 44.0034 15.5893 43.5151 15.1046C43.0268 14.6199 42.3669 14.3476 41.6789 14.3468ZM41.6843 17.7401H41.6789C41.4721 17.7383 41.2744 17.6551 41.1285 17.5084C40.9826 17.3618 40.9004 17.1636 40.8997 16.9568C40.899 16.75 40.9798 16.5512 41.1246 16.4036C41.2694 16.2559 41.4665 16.1713 41.6733 16.168H41.6792C41.8877 16.1672 42.0879 16.2493 42.2358 16.3962C42.3838 16.543 42.4673 16.7427 42.4681 16.9511C42.4688 17.1596 42.3867 17.3598 42.2399 17.5078C42.093 17.6557 41.8934 17.7392 41.6849 17.74L41.6843 17.7401Z" fill="#1D70B8"/>
<path d="M33.2198 19.8393L23.6088 19.91C23.3673 19.9109 23.136 20.0077 22.9658 20.179C22.7957 20.3504 22.7006 20.5824 22.7014 20.8239C22.7023 21.0654 22.7991 21.2967 22.9704 21.4669C23.1418 21.6371 23.3738 21.7322 23.6153 21.7313H23.6222L33.2332 21.6605C33.4747 21.6588 33.7056 21.5612 33.8752 21.3892C34.0447 21.2172 34.139 20.9849 34.1373 20.7434C34.1356 20.5019 34.038 20.2709 33.866 20.1014C33.694 19.9318 33.4617 19.8375 33.2202 19.8393H33.2198Z" fill="#1D70B8"/>
<path d="M49.9481 32.0372L49.7912 32.1219C48.5644 30.7366 46.5259 30.2194 44.962 31.0123C44.9552 31.0157 44.9484 31.0192 44.9417 31.0228L44.3724 31.3296C43.5353 30.6541 42.5135 30.2475 41.4412 30.163C40.3688 30.0785 39.296 30.3201 38.3634 30.8562L34.7545 32.8186H29.9411C28.9165 32.8174 27.9054 32.5857 26.9824 32.1407L26.3142 31.8175C24.3805 30.8765 22.2241 30.489 20.0838 30.698C17.9435 30.9069 15.9028 31.7041 14.1876 33.0013C14.1676 33.0163 14.1486 33.032 14.1296 33.0486L12.5157 34.4859C11.7762 35.1442 10.8705 35.5873 9.89691 35.7671C9.65939 35.8109 9.44903 35.9473 9.3121 36.1463C9.17517 36.3453 9.12289 36.5905 9.16676 36.828C9.21063 37.0655 9.34706 37.2759 9.54603 37.4128C9.745 37.5498 9.99021 37.602 10.2277 37.5582C11.5287 37.318 12.739 36.7259 13.7272 35.8463L15.3125 34.4348C16.7597 33.3487 18.4784 32.6827 20.2796 32.5102C22.0807 32.3377 23.8946 32.6653 25.5216 33.457L26.19 33.7802C27.3603 34.3443 28.6425 34.6381 29.9416 34.6398H36.4234C37.2931 34.6409 38.1377 34.9315 38.824 35.4658C39.5103 36.0002 39.9992 36.7478 40.2135 37.5907L35.7547 37.389C34.0354 37.3115 32.3127 37.391 30.6078 37.6267C30.3686 37.6598 30.1523 37.7866 30.0066 37.9792C29.8608 38.1718 29.7976 38.4144 29.8307 38.6537C29.8638 38.8929 29.9906 39.1092 30.1832 39.2549C30.3758 39.4007 30.6184 39.464 30.8576 39.4308C32.4524 39.2104 34.064 39.1359 35.6723 39.2084L41.2013 39.4586C41.2143 39.4586 41.2287 39.4596 41.2424 39.4596C41.4839 39.4596 41.7155 39.3637 41.8863 39.1929C42.0571 39.0221 42.153 38.7905 42.153 38.5489C42.153 38.4676 42.1503 38.3871 42.147 38.3066L42.8026 37.9609L50.8123 33.6398C51.3594 33.3435 51.9853 33.2252 52.6028 33.3014C53.2203 33.3776 53.7986 33.6444 54.2573 34.0648L38.2655 45.0446C36.1818 46.0559 33.8313 46.3811 31.5513 45.9734L21.8361 44.1845C20.7231 43.9116 19.5479 44.0719 18.5487 44.6331C18.5345 44.641 18.5203 44.6495 18.5067 44.6582L13.2303 47.9938C13.1292 48.0577 13.0417 48.1409 12.9727 48.2386C12.9038 48.3363 12.8548 48.4467 12.8285 48.5633C12.8022 48.68 12.7991 48.8007 12.8195 48.9185C12.8398 49.0364 12.8832 49.1491 12.9471 49.2501C13.011 49.3512 13.0942 49.4387 13.1919 49.5077C13.2896 49.5766 13.4 49.6256 13.5167 49.6519C13.6333 49.6782 13.754 49.6813 13.8719 49.6609C13.9897 49.6406 14.1024 49.5972 14.2035 49.5333L19.458 46.2111C20.0573 45.8813 20.7593 45.7911 21.4224 45.9589C21.4413 45.9636 21.4603 45.9677 21.4794 45.9719L31.2245 47.7662C33.9116 48.2471 36.682 47.8559 39.131 46.6499C39.1695 46.6309 39.2067 46.6092 39.2422 46.5849L56.0966 35.0125C56.2879 34.8811 56.4219 34.6816 56.4711 34.4548C56.5203 34.2279 56.481 33.9909 56.3613 33.792C55.7239 32.73 54.7014 31.9549 53.5068 31.628C52.3121 31.3011 51.0374 31.4477 49.9481 32.0372ZM39.2438 32.4506C39.251 32.4467 39.2583 32.4427 39.2654 32.4385C39.7606 32.1521 40.3182 31.991 40.8899 31.9693C41.4616 31.9476 42.0299 32.0659 42.5454 32.314L39.6964 33.8491C39.2093 33.5083 38.672 33.2455 38.1039 33.0704L39.2438 32.4506ZM41.9463 36.3542L41.7557 36.4546C41.5779 36.0033 41.3434 35.5765 41.0579 35.1844L45.7944 32.6324C46.5332 32.2634 47.4466 32.5115 48.1028 33.0328L41.9463 36.3542Z" fill="#1D70B8"/>
<path d="M38.3816 10.7165C38.3833 10.9568 38.4801 11.1868 38.6506 11.3561C38.8212 11.5254 39.0519 11.6205 39.2922 11.6205H39.299C39.4186 11.6196 39.5369 11.5952 39.647 11.5486C39.7572 11.502 39.8571 11.4342 39.941 11.349C40.025 11.2638 40.0913 11.1629 40.1363 11.0521C40.1812 10.9413 40.2039 10.8227 40.203 10.7031C40.1918 9.56337 39.729 8.47465 38.9161 7.67569C38.1033 6.87674 37.0068 6.43277 35.867 6.44116C34.7273 6.44954 33.6375 6.90961 32.8365 7.72044C32.0355 8.53127 31.5888 9.62668 31.5943 10.7664C31.596 11.0068 31.6928 11.2367 31.8633 11.4061C32.0339 11.5754 32.2646 11.6704 32.5049 11.6704H32.5116C32.6312 11.6696 32.7494 11.6451 32.8596 11.5986C32.9697 11.552 33.0696 11.4842 33.1536 11.399C33.2375 11.3138 33.3038 11.213 33.3488 11.1021C33.3938 10.9913 33.4165 10.8727 33.4156 10.7531C33.4108 10.4256 33.471 10.1004 33.5925 9.79615C33.714 9.49194 33.8945 9.21477 34.1235 8.98062C34.3526 8.74647 34.6258 8.55996 34.9273 8.43183C35.2288 8.30371 35.5526 8.2365 35.8802 8.23408C36.2077 8.23166 36.5326 8.29407 36.8359 8.41773C37.1392 8.54139 37.4151 8.72384 37.6476 8.95459C37.8802 9.18533 38.0647 9.45979 38.1907 9.76218C38.3167 10.0646 38.3816 10.3889 38.3817 10.7165H38.3816Z" fill="#1D70B8"/>
<path d="M24.0476 14.7327H24.0409C23.9213 14.7335 23.803 14.758 23.6929 14.8045C23.5827 14.8511 23.4828 14.9189 23.3988 15.0041C23.3149 15.0893 23.2486 15.1902 23.2036 15.301C23.1587 15.4119 23.136 15.5305 23.1369 15.6501L23.1483 17.2135C23.1501 17.4539 23.2468 17.6838 23.4174 17.8532C23.588 18.0225 23.8186 18.1175 24.059 18.1175H24.0656C24.1852 18.1167 24.3035 18.0923 24.4136 18.0457C24.5238 17.9992 24.6237 17.9314 24.7077 17.8462C24.7916 17.761 24.858 17.6601 24.9029 17.5493C24.9479 17.4385 24.9706 17.3199 24.9697 17.2003L24.9583 15.6367C24.9565 15.3963 24.8598 15.1664 24.6892 14.997C24.5186 14.8277 24.288 14.7327 24.0476 14.7327Z" fill="#1D70B8"/>
<path d="M21.151 14.754H21.1441C20.9026 14.7558 20.6717 14.8535 20.5022 15.0255C20.3327 15.1975 20.2385 15.4298 20.2403 15.6713L20.2518 17.2349C20.2536 17.4752 20.3504 17.7051 20.5209 17.8744C20.6915 18.0438 20.9221 18.1388 21.1625 18.1388H21.1694C21.289 18.1379 21.4072 18.1135 21.5174 18.0669C21.6275 18.0203 21.7274 17.9525 21.8113 17.8673C21.8953 17.7821 21.9616 17.6812 22.0065 17.5704C22.0515 17.4595 22.0742 17.3409 22.0733 17.2214L22.0617 15.6579C22.0599 15.4176 21.9632 15.1877 21.7926 15.0184C21.622 14.849 21.3914 14.754 21.151 14.754Z" fill="#1D70B8"/>
<path d="M35.631 14.6469H35.6241C35.5045 14.6477 35.3863 14.6722 35.2761 14.7188C35.166 14.7653 35.0661 14.8332 34.9822 14.9183C34.8982 15.0035 34.8319 15.1044 34.787 15.2153C34.742 15.3261 34.7193 15.4447 34.7202 15.5643L34.7318 17.1278C34.7336 17.3682 34.8303 17.5981 35.0009 17.7674C35.1715 17.9367 35.4021 18.0317 35.6425 18.0317H35.6492C35.7688 18.0309 35.8871 18.0064 35.9972 17.9599C36.1074 17.9133 36.2073 17.8455 36.2913 17.7603C36.3752 17.6751 36.4415 17.5742 36.4865 17.4633C36.5314 17.3525 36.5541 17.2339 36.5532 17.1143L36.5417 15.5507C36.5399 15.3104 36.4431 15.0805 36.2726 14.9112C36.102 14.7419 35.8714 14.6468 35.631 14.6469Z" fill="#1D70B8"/>
<path d="M26.9438 14.7111H26.9371C26.8175 14.7119 26.6992 14.7363 26.5891 14.7829C26.4789 14.8295 26.379 14.8973 26.295 14.9825C26.211 15.0677 26.1447 15.1686 26.0997 15.2794C26.0548 15.3902 26.0321 15.5089 26.033 15.6285L26.0444 17.1919C26.0462 17.4323 26.1429 17.6622 26.3135 17.8316C26.4841 18.0009 26.7147 18.0959 26.9551 18.0959H26.9618C27.0814 18.0951 27.1997 18.0706 27.3098 18.0241C27.42 17.9775 27.5199 17.9097 27.6038 17.8245C27.6878 17.7393 27.7541 17.6385 27.7991 17.5276C27.844 17.4168 27.8667 17.2982 27.8659 17.1786L27.8544 15.6151C27.8527 15.3747 27.7559 15.1448 27.5854 14.9754C27.4148 14.8061 27.1841 14.7111 26.9438 14.7111Z" fill="#1D70B8"/>
<path d="M29.8399 14.6898H29.8331C29.7135 14.6907 29.5953 14.7151 29.4851 14.7617C29.3749 14.8083 29.275 14.8761 29.1911 14.9613C29.1071 15.0465 29.0408 15.1474 28.9958 15.2582C28.9509 15.369 28.9282 15.4876 28.9291 15.6072L28.9405 17.1707C28.9423 17.411 29.039 17.641 29.2096 17.8103C29.3802 17.9797 29.6108 18.0747 29.8512 18.0747H29.858C29.9776 18.0738 30.0958 18.0494 30.206 18.0028C30.3161 17.9563 30.416 17.8885 30.5 17.8033C30.5839 17.7181 30.6502 17.6172 30.6952 17.5064C30.7402 17.3956 30.7629 17.277 30.762 17.1574L30.7505 15.5938C30.7488 15.3535 30.6521 15.1235 30.4815 14.9542C30.3109 14.7848 30.0803 14.6898 29.8399 14.6898Z" fill="#1D70B8"/>
<path d="M32.7352 14.6685H32.7281C32.6085 14.6693 32.4903 14.6938 32.3801 14.7404C32.27 14.7869 32.1701 14.8548 32.0862 14.94C32.0022 15.0251 31.9359 15.126 31.891 15.2369C31.846 15.3477 31.8234 15.4663 31.8242 15.5859L31.8358 17.1494C31.8376 17.3898 31.9343 17.6197 32.1049 17.789C32.2755 17.9583 32.5061 18.0533 32.7465 18.0533H32.7534C32.873 18.0524 32.9912 18.028 33.1013 17.9814C33.2115 17.9348 33.3114 17.867 33.3953 17.7818C33.4793 17.6966 33.5456 17.5958 33.5905 17.4849C33.6355 17.3741 33.6581 17.2555 33.6573 17.1359L33.6457 15.5725C33.6439 15.3321 33.5472 15.1022 33.3767 14.9329C33.2061 14.7635 32.9755 14.6685 32.7352 14.6685Z" fill="#1D70B8"/>
<path d="M41.3303 4.4657C40.3514 2.74042 38.9213 0.763794 36.5237 0.763794H36.4914L20.195 0.883869C18.234 0.898439 16.5155 2.24164 15.3536 4.66747L14.0835 6.9571C13.355 6.96113 12.0449 6.96829 11.2933 6.97388C9.80715 6.98481 8.60042 7.75235 8.2173 8.92891C8.05333 9.43306 7.9538 9.95593 7.92108 10.4851C7.91597 10.6077 7.93573 10.7302 7.97915 10.845C8.02257 10.9599 8.08877 11.0647 8.17376 11.1533C8.25876 11.2419 8.36079 11.3124 8.47372 11.3606C8.58666 11.4087 8.70817 11.4336 8.83094 11.4336H8.83888L10.1047 11.4226C9.45309 12.221 9.10637 13.2249 9.12638 14.2551C9.12671 14.2934 9.12944 14.3316 9.13458 14.3695L10.1447 21.9034C10.1632 22.4467 10.3548 22.9698 10.6914 23.3966C11.028 23.8234 11.4921 24.1316 12.0161 24.2762L12.0321 26.4452C12.0355 26.9015 12.2192 27.338 12.543 27.6595C12.8669 27.9811 13.3047 28.1615 13.761 28.1616H13.7741L16.2596 28.1433C16.7182 28.1398 17.1566 27.9544 17.4785 27.6277C17.8004 27.3011 17.9794 26.8599 17.976 26.4013L17.9608 24.3301L38.9331 24.1756L38.9483 26.2468C38.9518 26.7031 39.1356 27.1395 39.4595 27.461C39.7834 27.7824 40.2212 27.9628 40.6775 27.9628H40.6905L43.1761 27.9446C43.6345 27.9407 44.0727 27.7552 44.3945 27.4286C44.7163 27.102 44.8954 26.6611 44.8925 26.2027L44.8765 24.0233C45.3878 23.8634 45.836 23.5471 46.1579 23.1189C46.4797 22.6906 46.659 22.1722 46.6704 21.6366L47.6115 14.0904C47.6164 14.0508 47.6187 14.0109 47.6183 13.971C47.617 12.9367 47.2435 11.9374 46.5662 11.1557L47.866 11.1457C47.9892 11.1447 48.111 11.1187 48.2238 11.0693C48.3367 11.0198 48.4383 10.9481 48.5226 10.8582C48.6069 10.7684 48.6721 10.6624 48.7143 10.5466C48.7564 10.4308 48.7747 10.3077 48.7678 10.1847C48.7273 9.65611 48.6201 9.13477 48.4489 8.63308C48.0517 7.47044 46.8478 6.72345 45.3765 6.72345H45.3442C44.599 6.72891 43.3105 6.73399 42.5842 6.73646L41.3303 4.4657ZM16.9596 5.5266C16.969 5.51008 16.9776 5.4933 16.9856 5.47626C17.4754 4.44671 18.5457 2.71752 20.2083 2.70529L36.5048 2.58522H36.5224C37.6763 2.58522 38.6416 3.41781 39.7411 5.3554L42.2444 9.88977L14.4262 10.0947L16.9596 5.5266ZM9.91526 9.60252C9.92593 9.56618 9.93729 9.52954 9.94934 9.4926C10.081 9.0871 10.6388 8.8005 11.3067 8.79556C11.771 8.79218 12.4485 8.78802 13.0703 8.7845L12.6295 9.57911L9.91526 9.60252ZM13.8525 26.3393L13.8379 24.3601L16.1393 24.3432L16.1538 26.3222L13.8525 26.3393ZM40.7686 26.1409L40.7542 24.1617L43.0554 24.1448L43.0699 26.124L40.7686 26.1409ZM44.8558 21.4643C44.8509 21.504 44.8485 21.5439 44.8488 21.5839C44.849 21.7761 44.7734 21.9607 44.6385 22.0977C44.5035 22.2346 44.3201 22.3129 44.1278 22.3155L12.6961 22.5471H12.6908C12.4995 22.5458 12.3163 22.4696 12.1805 22.3348C12.0447 22.1999 11.9672 22.0173 11.9645 21.826C11.9642 21.7877 11.9614 21.7495 11.9563 21.7116L10.9474 14.1875C10.9604 12.8287 11.8631 11.9923 12.7778 11.921C12.8095 11.9248 12.8413 11.9269 12.8732 11.9273H12.8799L43.7618 11.6996C43.7663 11.6996 43.7709 11.7004 43.7756 11.7004H43.7824C44.05 11.6992 44.3146 11.7566 44.5577 11.8685C44.8007 11.9804 45.0163 12.1442 45.1894 12.3483C45.5679 12.7894 45.7821 13.3479 45.7955 13.929L44.8558 21.4643ZM45.3573 8.54474C46.0232 8.53733 46.5872 8.81794 46.7251 9.22122C46.7381 9.25856 46.7498 9.29577 46.7613 9.33245L44.0294 9.35353L43.5878 8.55359C44.2098 8.55138 44.8904 8.54813 45.3576 8.54474H45.3573Z" fill="#1D70B8"/>
<path d="M2.80515 54.4503C2.83206 54.6711 2.93885 54.8744 3.10537 55.0219C3.27188 55.1693 3.48661 55.2508 3.70903 55.2508H15.4173C15.5597 55.2509 15.7001 55.2176 15.8273 55.1536C15.9544 55.0896 16.0648 54.9967 16.1496 54.8823C16.2343 54.7679 16.2911 54.6352 16.3153 54.495C16.3395 54.3547 16.3305 54.2107 16.289 54.0745L9.78434 32.7394C9.72742 32.5527 9.61206 32.3893 9.45526 32.2732C9.29845 32.1571 9.10849 32.0944 8.91337 32.0944H1.10784C0.978955 32.0944 0.851542 32.1217 0.734023 32.1747C0.616504 32.2276 0.511556 32.3048 0.426118 32.4013C0.340679 32.4978 0.276696 32.6113 0.238398 32.7344C0.200101 32.8575 0.188362 32.9873 0.203957 33.1152L2.80515 54.4503ZM8.23832 33.9157L14.1877 53.4295H4.51534L2.13557 33.9157H8.23832Z" fill="#1D70B8"/>
</svg>
